<?xml version="1.0" encoding="UTF-8"?>
<svg width="818px" height="104px" viewBox="0 0 818 104" version="1.1" xmlns="http://www.w3.org/2000/svg" xmlns:xlink="http://www.w3.org/1999/xlink">
    <!-- Generator: Sketch 52.6 (67491) - http://www.bohemiancoding.com/sketch -->
    <title>UNCORKED</title>
    <desc>Created with Sketch.</desc>
    <defs>
        <path d="M95.569,99.885 C95.569,106.701034 94.5750099,112.712307 92.587,117.919 C90.5989901,123.125693 87.7235188,127.503982 83.9605,131.054 C80.1974812,134.604018 75.6298602,137.290158 70.2575,139.1125 C64.8851398,140.934842 58.8147005,141.846 52.046,141.846 C45.2772995,141.846 39.2068602,140.934842 33.8345,139.1125 C28.4621398,137.290158 23.906352,134.604018 20.167,131.054 C16.427648,127.503982 13.5640099,123.125693 11.576,117.919 C9.58799006,112.712307 8.594,106.701034 8.594,99.885 L8.594,40.6 L32.379,40.6 L32.379,98.962 C32.379,102.370017 32.8523286,105.328321 33.799,107.837 C34.7456714,110.345679 36.0709915,112.440158 37.775,114.1205 C39.4790085,115.800842 41.5379879,117.043329 43.952,117.848 C46.3660121,118.652671 49.0639851,119.055 52.046,119.055 C55.0280149,119.055 57.7378211,118.652671 60.1755,117.848 C62.6131789,117.043329 64.6839915,115.800842 66.388,114.1205 C68.0920085,112.440158 69.4173286,110.345679 70.364,107.837 C71.3106714,105.328321 71.784,102.370017 71.784,98.962 L71.784,40.6 L95.569,40.6 L95.569,99.885 Z M204.483,140 L181.692,140 L136.394,79.366 L136.394,140 L112.68,140 L112.68,40.6 L135.4,40.6 L180.698,101.234 L180.698,40.6 L204.483,40.6 L204.483,140 Z M270.726,38.754 C275.459357,38.754 280.026978,39.2983279 284.429,40.387 C288.831022,41.4756721 292.937148,43.0376565 296.7475,45.073 C300.557852,47.1083435 304.001318,49.6169851 307.078,52.599 C310.154682,55.5810149 312.757989,58.941648 314.888,62.681 L294.085,74.609 C291.481654,70.3489787 288.180187,67.0948446 284.1805,64.8465 C280.180813,62.5981554 275.601359,61.474 270.442,61.474 C266.513314,61.474 262.880517,62.1721597 259.5435,63.5685 C256.206483,64.9648403 253.319179,66.9409872 250.8815,69.497 C248.443821,72.0530128 246.538674,75.094149 245.166,78.6205 C243.793326,82.146851 243.107,86.0399787 243.107,90.3 C243.107,94.9386899 243.840659,99.0448155 245.308,102.6185 C246.775341,106.192185 248.763321,109.197821 251.272,111.6355 C253.780679,114.073179 256.69165,115.930994 260.005,117.209 C263.31835,118.487006 266.820982,119.126 270.513,119.126 C275.577692,119.126 280.13348,118.013678 284.1805,115.789 C288.22752,113.564322 291.670986,110.322021 294.511,106.062 L313.965,119.836 C311.692989,123.244017 309.054182,126.296987 306.0485,128.995 C303.042818,131.693013 299.717685,134.00049 296.073,135.9175 C292.428315,137.83451 288.476021,139.301828 284.216,140.3195 C279.955979,141.337172 275.459357,141.846 270.726,141.846 C263.057962,141.846 256.017199,140.568013 249.6035,138.012 C243.189801,135.455987 237.675523,131.906023 233.0605,127.362 C228.445477,122.817977 224.84818,117.386532 222.2685,111.0675 C219.68882,104.748468 218.399,97.8260376 218.399,90.3 C218.399,82.7739624 219.68882,75.8515316 222.2685,69.5325 C224.84818,63.2134684 228.445477,57.7820227 233.0605,53.238 C237.675523,48.6939773 243.189801,45.1440128 249.6035,42.588 C256.017199,40.0319872 263.057962,38.754 270.726,38.754 Z M376.445,38.754 C384.113038,38.754 391.153801,40.0438204 397.5675,42.6235 C403.981199,45.2031796 409.50731,48.7886437 414.146,53.38 C418.78469,57.9713563 422.39382,63.4146352 424.9735,69.71 C427.55318,76.0053648 428.843,82.8686295 428.843,90.3 C428.843,97.7313705 427.55318,104.594635 424.9735,110.89 C422.39382,117.185365 418.78469,122.628644 414.146,127.22 C409.50731,131.811356 403.981199,135.39682 397.5675,137.9765 C391.153801,140.55618 384.113038,141.846 376.445,141.846 C368.776962,141.846 361.736199,140.55618 355.3225,137.9765 C348.908801,135.39682 343.38269,131.811356 338.744,127.22 C334.10531,122.628644 330.49618,117.185365 327.9165,110.89 C325.33682,104.594635 324.047,97.7313705 324.047,90.3 C324.047,82.8686295 325.33682,76.0053648 327.9165,69.71 C330.49618,63.4146352 334.10531,57.9713563 338.744,53.38 C343.38269,48.7886437 348.908801,45.2031796 355.3225,42.6235 C361.736199,40.0438204 368.776962,38.754 376.445,38.754 Z M376.445,61.474 C372.374313,61.474 368.64685,62.1721597 365.2625,63.5685 C361.87815,64.9648403 358.967179,66.9409872 356.5295,69.497 C354.091821,72.0530128 352.186674,75.094149 350.814,78.6205 C349.441326,82.146851 348.755,86.0399787 348.755,90.3 C348.755,94.5600213 349.441326,98.453149 350.814,101.9795 C352.186674,105.505851 354.091821,108.546987 356.5295,111.103 C358.967179,113.659013 361.87815,115.63516 365.2625,117.0315 C368.64685,118.42784 372.374313,119.126 376.445,119.126 C380.468353,119.126 384.183983,118.42784 387.592,117.0315 C391.000017,115.63516 393.922821,113.659013 396.3605,111.103 C398.798179,108.546987 400.703326,105.505851 402.076,101.9795 C403.448674,98.453149 404.135,94.5600213 404.135,90.3 C404.135,86.0399787 403.448674,82.146851 402.076,78.6205 C400.703326,75.094149 398.798179,72.0530128 396.3605,69.497 C393.922821,66.9409872 391.000017,64.9648403 387.592,63.5685 C384.183983,62.1721597 380.468353,61.474 376.445,61.474 Z M485.998,40.6 C492.151364,40.6 497.570977,41.3336593 502.257,42.801 C506.943023,44.2683407 510.871651,46.3864862 514.043,49.1555 C517.214349,51.9245138 519.604659,55.2733137 521.214,59.202 C522.823341,63.1306863 523.628,67.5326423 523.628,72.408 C523.628,76.3366863 523.012673,79.9576501 521.782,83.271 C520.551327,86.5843499 518.764512,89.5189872 516.4215,92.075 C514.078488,94.6310128 511.179351,96.7609915 507.724,98.465 C504.268649,100.169009 500.316356,101.375996 495.867,102.086 L524.409,140 L496.151,140 L469.952,102.796 L466.473,102.796 L466.473,140 L442.759,140 L442.759,40.6 L485.998,40.6 Z M466.473,62.113 L466.473,82.845 L485.714,82.845 C490.021355,82.845 493.393821,81.9930085 495.8315,80.289 C498.269179,78.5849915 499.488,75.9580177 499.488,72.408 C499.488,70.6566579 499.168503,69.1301732 498.5295,67.8285 C497.890497,66.5268268 496.967506,65.4500043 495.7605,64.598 C494.553494,63.7459957 493.098009,63.1188353 491.394,62.7165 C489.689991,62.3141647 487.796677,62.113 485.714,62.113 L466.473,62.113 Z M570.488,100.666 L562.11,100.666 L562.11,140 L538.396,140 L538.396,40.6 L562.11,40.6 L562.11,79.295 L570.701,79.295 L599.243,40.6 L628.424,40.6 L589.871,89.093 L631.619,140 L601.799,140 L570.488,100.666 Z M715.541,140 L639.429,140 L639.429,40.6 L715.257,40.6 L715.257,61.971 L663.143,61.971 L663.143,79.153 L712.204,79.153 L712.204,100.453 L663.143,100.453 L663.143,118.629 L715.541,118.629 L715.541,140 Z M774.258,40.6 C782.020705,40.6 789.073302,41.7833215 795.416,44.15 C801.758698,46.5166785 807.190144,49.8654783 811.7105,54.1965 C816.230856,58.5275217 819.721654,63.7578027 822.183,69.8875 C824.644346,76.0171973 825.875,82.8212959 825.875,90.3 C825.875,97.7787041 824.644346,104.582803 822.183,110.7125 C819.721654,116.842197 816.230856,122.072478 811.7105,126.4035 C807.190144,130.734522 801.758698,134.083322 795.416,136.45 C789.073302,138.816678 782.020705,140 774.258,140 L731.729,140 L731.729,40.6 L774.258,40.6 Z M755.443,62.539 L755.443,118.061 L773.761,118.061 C778.352356,118.061 782.363816,117.36284 785.7955,115.9665 C789.227184,114.57016 792.078989,112.641346 794.351,110.18 C796.623011,107.718654 798.315161,104.79585 799.4275,101.4115 C800.539839,98.0271497 801.096,94.3233535 801.096,90.3 C801.096,86.229313 800.539839,82.490017 799.4275,79.082 C798.315161,75.673983 796.623011,72.7511789 794.351,70.3135 C792.078989,67.8758211 789.227184,65.9706735 785.7955,64.598 C782.363816,63.2253265 778.352356,62.539 773.761,62.539 L755.443,62.539 Z" id="path-1"></path>
    </defs>
    <g id="Page-1" stroke="none" stroke-width="1" fill="none" fill-rule="evenodd">
        <g id="UNCORKED_black" transform="translate(-8.000000, -38.000000)">
            <g id="UNCORKED">
                <use fill="#000000" xlink:href="#path-1"></use>
                <use fill="#303133" xlink:href="#path-1"></use>
            </g>
        </g>
    </g>
</svg>